<svg width="44" height="44" viewBox="0 0 44 44" fill="none" xmlns="http://www.w3.org/2000/svg">
<path d="M34.8333 5.5H9.16667C7.14162 5.5 5.5 7.14162 5.5 9.16667V34.8333C5.5 36.8584 7.14162 38.5 9.16667 38.5H34.8333C36.8584 38.5 38.5 36.8584 38.5 34.8333V9.16667C38.5 7.14162 36.8584 5.5 34.8333 5.5Z" stroke="#808080" stroke-width="2" stroke-linecap="round" stroke-linejoin="round"/>
<path d="M15.5835 18.3333C17.1023 18.3333 18.3335 17.1021 18.3335 15.5833C18.3335 14.0646 17.1023 12.8333 15.5835 12.8333C14.0647 12.8333 12.8335 14.0646 12.8335 15.5833C12.8335 17.1021 14.0647 18.3333 15.5835 18.3333Z" stroke="#808080" stroke-width="2" stroke-linecap="round" stroke-linejoin="round"/>
<path d="M38.4998 27.5L29.3332 18.3333L9.1665 38.5" stroke="#808080" stroke-width="2" stroke-linecap="round" stroke-linejoin="round"/>
</svg>
